<?xml version="1.0" standalone="no"?>
<!DOCTYPE svg PUBLIC "-//W3C//DTD SVG 20010904//EN"
 "http://www.w3.org/TR/2001/REC-SVG-20010904/DTD/svg10.dtd">
<svg version="1.0" xmlns="http://www.w3.org/2000/svg"
 width="417.000000pt" height="417.000000pt" viewBox="0 0 417.000000 417.000000"
 preserveAspectRatio="xMidYMid meet">

<g transform="translate(0.000000,417.000000) scale(0.100000,-0.100000)"
fill="#000000" stroke="none">
<path d="M1555 2901 c-48 -22 -69 -44 -90 -94 -13 -31 -15 -127 -15 -724 0
-646 2 -690 19 -728 22 -48 44 -69 94 -90 31 -13 107 -15 524 -15 452 0 491 2
528 19 48 22 69 44 90 94 13 31 15 113 15 571 0 470 -2 541 -16 576 -23 58
-368 385 -422 400 -22 6 -168 10 -362 10 -294 0 -329 -2 -365 -19z m655 -227
c0 -235 9 -244 249 -244 l161 0 0 -515 0 -516 -25 -24 -24 -25 -486 0 -486 0
-24 25 -25 24 0 686 0 686 25 24 24 25 306 0 305 0 0 -146z m350 -140 c0 -2
-56 -4 -125 -4 l-125 0 0 121 0 121 125 -117 c69 -65 125 -119 125 -121z"/>
<path d="M1686 2254 c-19 -18 -21 -55 -4 -72 17 -17 769 -17 786 0 17 17 15
54 -4 72 -13 14 -63 16 -389 16 -326 0 -376 -2 -389 -16z"/>
<path d="M1687 1992 c-20 -22 -22 -53 -5 -70 17 -17 769 -17 786 0 17 17 15
54 -4 72 -13 14 -63 16 -388 16 -349 0 -374 -1 -389 -18z"/>
<path d="M1692 1734 c-24 -17 -29 -53 -10 -72 8 -8 57 -12 153 -12 149 0 165
5 165 46 0 43 -34 54 -165 54 -93 0 -126 -4 -143 -16z"/>
</g>
</svg>
