<?xml version="1.0" standalone="no"?>
<!DOCTYPE svg PUBLIC "-//W3C//DTD SVG 20010904//EN"
 "http://www.w3.org/TR/2001/REC-SVG-20010904/DTD/svg10.dtd">
<svg version="1.0" xmlns="http://www.w3.org/2000/svg"
 width="417.000000pt" height="417.000000pt" viewBox="0 0 417.000000 417.000000"
 preserveAspectRatio="xMidYMid meet">

<g transform="translate(0.000000,417.000000) scale(0.100000,-0.100000)"
fill="#000000" stroke="none">
<path d="M1578 2910 c-46 -14 -85 -48 -107 -93 -21 -43 -21 -54 -21 -732 0
-681 0 -689 21 -733 13 -26 38 -54 62 -70 l41 -27 511 0 511 0 41 27 c24 16
49 44 62 70 21 43 21 55 21 581 0 469 -2 542 -16 577 -20 49 -348 364 -409
391 -36 17 -71 18 -365 18 -179 0 -337 -4 -352 -9z m634 -250 l3 -160 33 -32
32 -33 170 -3 170 -3 0 -519 0 -519 -26 -20 c-26 -21 -36 -21 -509 -21 -473 0
-483 0 -509 21 l-26 20 0 694 0 694 26 20 c26 20 38 21 330 21 l303 0 3 -160z
m322 -99 l30 -31 -127 0 -127 0 0 121 0 121 98 -90 c53 -50 110 -104 126 -121z"/>
<path d="M1692 2254 c-26 -18 -28 -46 -6 -68 13 -14 62 -16 385 -16 236 0 377
4 390 10 26 14 24 55 -3 74 -34 24 -732 24 -766 0z"/>
<path d="M1692 1994 c-26 -18 -28 -46 -6 -68 13 -14 62 -16 385 -16 236 0 377
4 390 10 26 14 24 55 -3 74 -34 24 -732 24 -766 0z"/>
<path d="M1682 1728 c-7 -7 -12 -21 -12 -33 0 -40 17 -45 165 -45 148 0 165 5
165 45 0 40 -17 45 -165 45 -96 0 -145 -4 -153 -12z"/>
</g>
</svg>
