<?xml version="1.0" standalone="no"?>
<!DOCTYPE svg PUBLIC "-//W3C//DTD SVG 20010904//EN"
 "http://www.w3.org/TR/2001/REC-SVG-20010904/DTD/svg10.dtd">
<svg version="1.0" xmlns="http://www.w3.org/2000/svg"
 width="417.000000pt" height="417.000000pt" viewBox="0 0 417.000000 417.000000"
 preserveAspectRatio="xMidYMid meet">

<g transform="translate(0.000000,417.000000) scale(0.100000,-0.100000)"
fill="#000000" stroke="none">
<path d="M1545 2891 c-16 -10 -38 -27 -48 -39 -46 -51 -46 -60 -47 -762 0
-428 4 -678 10 -702 13 -44 52 -93 91 -113 42 -22 1026 -22 1068 0 39 20 78
69 91 113 14 50 14 1043 0 1097 -9 33 -42 70 -193 218 -100 97 -196 184 -213
192 -27 12 -92 15 -381 15 -321 0 -350 -1 -378 -19z m675 -232 c7 -229 7 -229
263 -229 l147 0 0 -505 c0 -558 1 -552 -61 -574 -44 -15 -924 -15 -968 0 -63
22 -61 1 -61 733 0 504 3 672 12 692 23 50 47 54 368 51 l295 -2 5 -166z m350
-132 c0 -4 -57 -6 -127 -5 l-128 3 -3 129 -3 128 131 -123 c71 -68 130 -128
130 -132z"/>
<path d="M1678 2234 c-11 -23 -10 -29 11 -45 22 -18 46 -19 386 -19 340 0 364
1 386 19 21 16 22 22 11 45 l-12 26 -385 0 -385 0 -12 -26z"/>
<path d="M1678 1974 c-11 -23 -10 -29 11 -45 22 -18 46 -19 386 -19 340 0 364
1 386 19 21 16 22 22 11 45 l-12 26 -385 0 -385 0 -12 -26z"/>
<path d="M1678 1715 c-9 -21 -8 -28 7 -45 16 -18 31 -20 150 -20 119 0 134 2
150 20 15 17 16 24 7 45 -12 25 -12 25 -157 25 -145 0 -145 0 -157 -25z"/>
</g>
</svg>
