<?xml version="1.0" standalone="no"?>
<!DOCTYPE svg PUBLIC "-//W3C//DTD SVG 20010904//EN"
 "http://www.w3.org/TR/2001/REC-SVG-20010904/DTD/svg10.dtd">
<svg version="1.0" xmlns="http://www.w3.org/2000/svg"
 width="417.000000pt" height="417.000000pt" viewBox="0 0 417.000000 417.000000"
 preserveAspectRatio="xMidYMid meet">

<g transform="translate(0.000000,417.000000) scale(0.100000,-0.100000)"
fill="#000000" stroke="none">
<path d="M1571 2907 c-47 -15 -98 -69 -111 -116 -7 -27 -10 -264 -8 -729 l3
-688 27 -41 c53 -80 38 -78 603 -78 565 0 550 -2 603 78 l27 41 3 545 c2 478
1 551 -13 587 -12 32 -57 81 -194 209 -98 93 -191 175 -207 184 -25 14 -77 16
-364 18 -223 1 -346 -2 -369 -10z m639 -227 c0 -150 9 -188 50 -225 20 -18 39
-20 191 -23 l169 -3 0 -517 0 -516 -22 -23 -21 -23 -491 0 c-489 0 -490 0
-513 22 l-23 21 0 691 0 690 22 23 21 23 309 0 308 0 0 -140z m305 -99 l49
-51 -127 0 -127 0 0 121 0 121 78 -70 c42 -39 99 -93 127 -121z"/>
<path d="M1700 2257 c-30 -15 -37 -48 -15 -71 15 -14 59 -16 390 -16 331 0
375 2 390 16 22 23 15 56 -15 71 -36 18 -714 18 -750 0z"/>
<path d="M1682 1988 c-17 -17 -15 -44 4 -62 13 -14 63 -16 389 -16 326 0 376
2 389 16 19 18 21 45 4 62 -17 17 -769 17 -786 0z"/>
<path d="M1682 1728 c-17 -17 -15 -44 4 -62 12 -13 41 -16 149 -16 140 0 165
7 165 49 0 36 -20 41 -165 41 -96 0 -145 -4 -153 -12z"/>
</g>
</svg>
