<?xml version="1.0" standalone="no"?>
<!DOCTYPE svg PUBLIC "-//W3C//DTD SVG 20010904//EN"
 "http://www.w3.org/TR/2001/REC-SVG-20010904/DTD/svg10.dtd">
<svg version="1.0" xmlns="http://www.w3.org/2000/svg"
 width="1697.000000pt" height="1445.000000pt" viewBox="0 0 1697.000000 1445.000000"
 preserveAspectRatio="xMidYMid meet">

<g transform="translate(0.000000,1445.000000) scale(0.100000,-0.100000)"
fill="#000000" stroke="none">
<path d="M430 12639 c-89 -36 -114 -155 -49 -226 31 -32 91 -47 133 -33 115
38 130 203 22 254 -38 18 -69 19 -106 5z"/>
<path d="M900 12639 c-89 -36 -114 -155 -49 -226 31 -32 91 -47 133 -33 115
38 130 203 22 254 -38 18 -69 19 -106 5z"/>
<path d="M1365 12636 c-88 -39 -108 -149 -41 -220 109 -116 290 33 206 169
-35 57 -104 78 -165 51z"/>
<path d="M8360 12590 c0 -20 4 -20 188 -18 158 3 187 5 187 18 0 13 -29 15
-187 18 -184 2 -188 2 -188 -18z"/>
<path d="M8363 12505 c-3 -9 -1 -21 4 -26 5 -5 84 -8 189 -7 171 3 179 4 179
23 0 19 -8 20 -183 23 -159 2 -183 0 -189 -13z"/>
<path d="M8360 12400 c0 -20 4 -20 188 -18 158 3 187 5 187 18 0 13 -29 15
-187 18 -184 2 -188 2 -188 -18z"/>
<path d="M11454 11259 c-34 -10 -84 -34 -110 -53 -27 -19 -90 -55 -140 -80
-147 -73 -244 -186 -288 -335 -9 -30 -16 -74 -16 -98 l0 -43 55 0 54 0 6 -37
c18 -111 45 -180 99 -252 24 -33 26 -42 26 -148 0 -128 -7 -121 95 -98 250 58
563 62 849 9 44 -8 95 -17 113 -21 29 -5 33 -3 48 33 39 90 76 213 87 291 20
137 -10 268 -86 383 -15 22 -26 56 -29 93 -15 156 -145 307 -308 358 -88 28
-366 27 -455 -2z"/>
<path d="M3610 10863 c-26 -33 -21 -79 11 -105 20 -17 79 -18 924 -18 845 0
904 1 924 18 32 26 37 72 11 105 l-21 27 -914 0 -914 0 -21 -27z"/>
<path d="M3583 8410 c-47 -19 -57 -87 -18 -125 l24 -25 899 0 c895 0 899 0
926 21 34 27 37 86 5 115 -20 18 -52 19 -918 21 -504 1 -906 -2 -918 -7z"/>
<path d="M11855 7889 c-121 -3 -246 -7 -277 -8 -44 -1 -63 -6 -84 -24 l-26
-23 26 -52 26 -52 -25 -6 c-14 -3 -22 -10 -19 -15 3 -6 -5 -7 -20 -3 -25 6
-330 -32 -352 -45 -7 -3 72 -67 177 -143 l188 -137 71 -7 c38 -3 70 -9 70 -13
0 -3 -5 -24 -10 -46 -27 -113 76 -235 197 -235 46 0 110 29 140 61 31 34 53
91 53 139 0 31 4 40 18 40 9 0 261 -25 560 -56 298 -31 545 -54 548 -52 8 9
-46 149 -94 242 -43 84 -142 228 -173 252 -8 6 -153 30 -324 54 -170 23 -333
47 -362 52 l-52 11 20 38 19 39 -37 -2 c-21 -1 -137 -5 -258 -9z"/>
<path d="M10631 7084 c-12 -15 -21 -38 -21 -51 0 -28 41 -73 68 -73 10 0 408
-40 885 -90 476 -49 873 -90 881 -90 24 0 56 34 62 66 4 23 0 37 -18 58 l-23
27 -860 89 c-473 50 -881 90 -907 90 -38 0 -50 -5 -67 -26z"/>
<path d="M11677 4283 c-114 -863 -208 -1578 -207 -1590 0 -33 20 -71 47 -88
13 -9 73 -22 134 -30 61 -7 112 -15 114 -17 2 -2 6 -38 10 -81 7 -74 7 -77
-14 -77 -20 0 -21 -5 -21 -77 l-1 -78 -176 -120 c-96 -66 -184 -131 -194 -144
-22 -27 -24 -59 -7 -96 l11 -25 264 0 264 0 28 60 c30 64 35 63 46 -14 l7 -46
84 0 c46 0 84 3 84 8 0 4 -9 108 -20 232 -11 124 -20 237 -20 252 0 23 -5 27
-40 33 l-40 7 0 69 0 69 33 0 c42 0 91 31 105 66 6 16 43 173 81 349 170 780
322 1428 332 1418 4 -5 193 -330 419 -723 226 -393 422 -725 436 -737 30 -28
86 -30 144 -7 23 9 42 15 44 13 1 -2 64 -93 140 -203 120 -175 135 -200 120
-210 -15 -11 -13 -19 18 -82 l35 -69 -103 -195 c-57 -107 -104 -205 -104 -217
0 -12 4 -33 10 -47 9 -25 13 -26 90 -26 l80 0 176 93 176 92 -7 82 c-3 46 -4
83 -1 83 2 0 26 -27 51 -59 l47 -59 69 36 c38 21 69 40 69 44 0 4 -66 111
-146 237 l-146 230 -34 -17 c-21 -10 -37 -12 -43 -6 -10 10 -221 410 -221 418
0 3 11 22 25 42 14 20 25 49 25 64 0 22 -943 2576 -956 2590 -3 2 -233 28
-512 56 -279 29 -527 55 -552 58 l-46 6 -207 -1567z"/>
</g>
</svg>
