<?xml version="1.0" standalone="no"?>
<!DOCTYPE svg PUBLIC "-//W3C//DTD SVG 20010904//EN"
 "http://www.w3.org/TR/2001/REC-SVG-20010904/DTD/svg10.dtd">
<svg version="1.0" xmlns="http://www.w3.org/2000/svg"
 width="1697.000000pt" height="1445.000000pt" viewBox="0 0 1697.000000 1445.000000"
 preserveAspectRatio="xMidYMid meet">

<g transform="translate(0.000000,1445.000000) scale(0.100000,-0.100000)"
fill="#000000" stroke="none">
<path d="M4790 8960 c-25 -5 -698 -9 -1495 -9 -907 -1 -1463 -5 -1484 -11 -54
-15 -98 -51 -126 -101 l-25 -47 0 -2196 c0 -1960 2 -2201 15 -2234 20 -47 50
-79 97 -103 35 -18 65 -19 541 -19 277 0 506 -2 509 -5 3 -3 -28 -70 -69 -148
-41 -78 -111 -213 -154 -299 l-79 -158 -83 0 c-209 0 -456 -39 -562 -88 -97
-46 -99 -51 -86 -244 6 -90 13 -200 17 -246 l5 -82 -284 0 -284 0 7 47 c4 27
25 236 46 466 21 229 41 422 44 427 4 6 20 6 45 -1 125 -35 265 80 265 216 0
116 -97 215 -214 219 -28 1 -62 9 -76 18 -14 9 -37 20 -53 23 -15 4 -242 2
-505 -5 -456 -11 -479 -13 -522 -33 -55 -27 -84 -73 -82 -131 1 -22 39 -312
85 -643 l83 -603 -178 0 c-98 0 -178 -3 -178 -6 0 -22 347 -391 508 -541 l131
-123 604 0 604 0 7 -61 c25 -242 127 -585 262 -878 l38 -84 115 -54 c566 -268
1278 -474 1925 -558 498 -65 1080 -72 1566 -20 784 85 1543 303 2216 636 l141
70 56 117 c91 192 146 393 167 612 6 63 13 139 16 168 l5 52 3975 0 3975 0
131 123 c161 150 508 519 508 541 0 3 -349 6 -775 6 l-775 0 0 865 0 865
-1020 0 -1020 0 0 -865 0 -865 -2829 0 -2830 0 -16 58 c-70 238 -330 1065
-365 1156 -22 59 -53 55 489 58 l499 3 39 31 c21 17 48 48 60 70 l23 39 0
1176 0 1176 53 13 c77 19 285 25 375 10 257 -41 508 -184 663 -378 142 -177
216 -382 249 -686 10 -91 30 -658 45 -1281 15 -620 39 -788 143 -990 36 -70
64 -107 127 -170 128 -126 281 -200 505 -242 133 -25 610 -25 820 1 500 60
835 195 1085 437 136 131 224 267 273 419 37 116 45 182 39 338 -6 192 -33
292 -177 677 -111 297 -166 483 -194 655 -118 721 89 1497 543 2041 212 255
454 391 696 393 159 2 194 -17 159 -85 -9 -18 -20 -45 -24 -59 -7 -26 -5 -28
44 -43 164 -51 428 -71 801 -63 296 7 702 25 788 35 l58 6 -39 62 c-30 45 -48
62 -69 67 -15 3 -335 44 -711 92 l-683 87 -33 -32 c-37 -36 -43 -37 -128 -15
-88 23 -276 15 -373 -16 -92 -29 -224 -98 -305 -159 -292 -220 -584 -692 -719
-1162 -78 -270 -105 -499 -98 -804 9 -374 54 -580 217 -1000 154 -396 185
-522 184 -730 -1 -121 -5 -152 -28 -228 -50 -166 -124 -287 -256 -417 -180
-180 -429 -307 -730 -375 -198 -45 -395 -66 -686 -72 -298 -6 -400 1 -557 43
-151 40 -248 94 -348 194 -127 127 -190 265 -223 491 -20 136 -23 215 -47
1054 -19 710 -26 842 -55 1010 -46 279 -153 495 -326 661 -101 97 -178 151
-301 209 -232 111 -459 140 -719 90 l-38 -7 -2 1004 -3 1005 -28 40 c-15 22
-46 50 -70 64 l-42 24 -1575 7 c-866 4 -1645 9 -1730 12 -85 2 -175 0 -200 -4z
m-1572 -1335 l2 -65 -200 0 c-187 0 -201 1 -220 20 -11 11 -20 31 -20 45 0 14
9 34 20 45 19 19 33 20 218 20 l198 0 2 -65z m-578 35 c24 -24 26 -67 3 -92
-13 -15 -32 -18 -106 -18 -102 0 -127 12 -127 63 0 55 22 67 122 67 75 0 91
-3 108 -20z m3541 -135 c11 -87 7 -336 -7 -396 -5 -23 -1 -29 22 -41 67 -32
47 -120 -29 -126 -31 -3 -37 -8 -48 -40 -26 -79 -92 -210 -155 -305 -185 -277
-490 -484 -816 -552 -109 -23 -263 -36 -350 -29 -71 6 -77 9 -76 28 0 12 -16
57 -36 100 -86 187 -104 330 -55 436 35 76 80 124 145 156 79 39 130 31 237
-33 99 -61 147 -76 198 -63 101 27 140 96 256 449 51 156 95 286 97 288 2 2
28 -17 59 -42 31 -25 58 -45 61 -45 2 0 2 15 -1 33 -7 44 17 89 60 116 18 11
75 32 127 47 104 29 221 80 260 112 32 26 36 20 51 -93z m-2948 -152 c3 -10 8
-39 12 -65 l6 -48 -30 0 c-59 0 -89 59 -55 108 18 27 61 29 67 5z m-223 -13
c11 -11 20 -31 20 -45 0 -50 -30 -65 -129 -65 -85 0 -91 1 -110 26 -12 15 -21
32 -21 39 0 7 9 24 21 39 19 25 25 26 110 26 76 0 92 -3 109 -20z m303 -340
c10 -33 17 -62 17 -65 0 -3 -32 -5 -72 -5 -60 0 -76 4 -95 22 -27 25 -29 54
-7 86 13 19 24 22 78 22 l63 0 16 -60z m300 -562 c23 -18 61 -42 85 -52 23
-11 41 -24 39 -30 -2 -7 -41 -12 -95 -14 -81 -2 -94 0 -112 18 -24 24 -26 57
-4 88 21 30 36 28 87 -10z m-232 -287 c25 -30 24 -52 -2 -85 -20 -26 -24 -27
-111 -24 -86 3 -92 5 -111 30 -17 23 -19 33 -11 55 14 42 48 54 137 51 69 -3
81 -6 98 -27z m910 -27 c52 -20 98 -39 103 -44 4 -4 -1 -17 -13 -29 -21 -21
-28 -21 -419 -21 -344 0 -401 2 -420 16 -27 18 -30 69 -5 96 15 17 39 18 339
18 l322 0 93 -36z m-1286 -269 c33 -32 32 -68 -1 -94 -22 -17 -41 -21 -101
-21 -41 0 -83 5 -94 11 -45 24 -43 100 3 119 13 5 56 9 96 9 65 1 76 -2 97
-24z m1380 0 c14 -13 25 -33 25 -45 0 -11 -11 -32 -25 -45 -22 -22 -32 -25
-105 -25 -73 0 -83 3 -105 25 -14 13 -25 34 -25 45 0 12 11 32 25 45 22 22 32
25 105 25 73 0 83 -3 105 -25z m390 0 c14 -13 25 -33 25 -45 0 -11 -11 -32
-25 -45 -22 -22 -32 -25 -105 -25 -73 0 -83 3 -105 25 -14 13 -25 34 -25 45 0
12 11 32 25 45 22 22 32 25 105 25 73 0 83 -3 105 -25z m-771 -6 c32 -25 35
-70 6 -99 -19 -19 -33 -20 -420 -20 -387 0 -401 1 -420 20 -36 36 -21 94 30
113 8 3 187 6 396 6 371 1 382 0 408 -20z m-1381 -280 c29 -16 37 -28 37 -61
0 -45 -41 -68 -122 -68 -95 0 -128 18 -128 73 0 49 30 67 116 67 41 0 85 -5
97 -11z m1391 -10 c17 -13 26 -30 26 -49 0 -49 -39 -70 -130 -70 -93 0 -123
17 -123 70 0 53 30 70 123 70 63 0 82 -4 104 -21z m276 13 c0 -19 -49 -127
-58 -130 -6 -2 -20 6 -31 17 -29 29 -28 85 1 105 23 17 88 22 88 8z m-644 -24
c25 -25 22 -77 -5 -100 -22 -17 -49 -18 -418 -18 l-394 0 -24 25 c-32 31 -32
59 0 91 l25 25 400 -3 c360 -3 401 -5 416 -20z m-2147 -1303 c101 -51 118
-175 36 -255 -30 -29 -43 -34 -92 -37 -91 -6 -92 -4 -55 131 18 64 32 130 32
146 0 25 4 30 25 30 15 0 39 -7 54 -15z"/>
<path d="M13765 7270 c-14 -23 11 -30 116 -30 100 0 110 2 107 18 -3 15 -18
17 -110 20 -65 2 -109 -1 -113 -8z"/>
<path d="M13865 7190 c-14 -23 11 -30 116 -30 100 0 110 2 107 18 -3 15 -18
17 -110 20 -65 2 -109 -1 -113 -8z"/>
<path d="M13670 7175 c0 -8 7 -15 15 -15 8 0 15 7 15 15 0 8 -7 15 -15 15 -8
0 -15 -7 -15 -15z"/>
<path d="M13740 7175 c0 -10 10 -15 30 -15 20 0 30 5 30 15 0 10 -10 15 -30
15 -20 0 -30 -5 -30 -15z"/>
<path d="M13657 7113 c-14 -13 -6 -33 12 -33 25 0 38 20 20 31 -17 11 -24 11
-32 2z"/>
<path d="M13965 7110 c-14 -23 11 -30 116 -30 100 0 110 2 107 18 -3 15 -18
17 -110 20 -65 2 -109 -1 -113 -8z"/>
<path d="M13735 7100 c-8 -12 17 -23 41 -18 10 1 19 9 22 16 5 15 -54 17 -63
2z"/>
<path d="M13840 7095 c0 -10 10 -15 30 -15 20 0 30 5 30 15 0 10 -10 15 -30
15 -20 0 -30 -5 -30 -15z"/>
</g>
</svg>
