<?xml version="1.0" encoding="UTF-8"?>
<!DOCTYPE svg PUBLIC "-//W3C//DTD SVG 1.1//EN" "http://www.w3.org/Graphics/SVG/1.1/DTD/svg11.dtd">
<!-- Creator: CorelDRAW -->
<svg xmlns="http://www.w3.org/2000/svg" xml:space="preserve" width="1080px" height="832px" version="1.1" style="shape-rendering:geometricPrecision; text-rendering:geometricPrecision; image-rendering:optimizeQuality; fill-rule:evenodd; clip-rule:evenodd"
viewBox="0 0 1155.39 889.64"
 xmlns:xlink="http://www.w3.org/1999/xlink"
 xmlns:xodm="http://www.corel.com/coreldraw/odm/2003">
 <defs>
  <style type="text/css">
   <![CDATA[
    .fil14 {fill:#FEFEFE;fill-rule:nonzero}
    .fil9 {fill:#FFFEF6;fill-rule:nonzero}
    .fil17 {fill:#FEFAFC;fill-rule:nonzero}
    .fil27 {fill:#FAB485;fill-rule:nonzero}
    .fil28 {fill:#F5AC81;fill-rule:nonzero}
    .fil2 {fill:#F7F7F8;fill-rule:nonzero}
    .fil23 {fill:#F3AB7F;fill-rule:nonzero}
    .fil29 {fill:#F1F3F4;fill-rule:nonzero}
    .fil19 {fill:#E5E6E5;fill-rule:nonzero}
    .fil26 {fill:#E5E4E3;fill-rule:nonzero}
    .fil3 {fill:#E0DFDE;fill-rule:nonzero}
    .fil11 {fill:#E2A646;fill-rule:nonzero}
    .fil42 {fill:#DEDDD7;fill-rule:nonzero}
    .fil25 {fill:#D7D7D5;fill-rule:nonzero}
    .fil18 {fill:#D2E4F0;fill-rule:nonzero}
    .fil38 {fill:#CC956F;fill-rule:nonzero}
    .fil35 {fill:#CC956F;fill-rule:nonzero}
    .fil4 {fill:#C3C4C6;fill-rule:nonzero}
    .fil37 {fill:#B38666;fill-rule:nonzero}
    .fil21 {fill:#B4B6B5;fill-rule:nonzero}
    .fil15 {fill:#A9C5E4;fill-rule:nonzero}
    .fil31 {fill:#875E40;fill-rule:nonzero}
    .fil33 {fill:#704E34;fill-rule:nonzero}
    .fil24 {fill:#7E5E4A;fill-rule:nonzero}
    .fil13 {fill:#90B2DA;fill-rule:nonzero}
    .fil20 {fill:#848585;fill-rule:nonzero}
    .fil30 {fill:#4F4641;fill-rule:nonzero}
    .fil1 {fill:#48483C;fill-rule:nonzero}
    .fil34 {fill:black;fill-rule:nonzero}
    .fil6 {fill:#003B5A;fill-rule:nonzero}
    .fil5 {fill:#005D8F;fill-rule:nonzero}
    .fil8 {fill:#5A4D92;fill-rule:nonzero}
    .fil22 {fill:#666666;fill-rule:nonzero}
    .fil40 {fill:gray;fill-rule:nonzero}
    .fil41 {fill:gray;fill-rule:nonzero}
    .fil36 {fill:#B02978;fill-rule:nonzero}
    .fil12 {fill:#CC4594;fill-rule:nonzero}
    .fil7 {fill:#D4D1E3;fill-rule:nonzero}
    .fil39 {fill:#EB9500;fill-rule:nonzero}
    .fil16 {fill:#FF505D;fill-rule:nonzero}
    .fil32 {fill:#FFA101;fill-rule:nonzero}
    .fil10 {fill:white;fill-rule:nonzero}
    .fil0 {fill:#5A4D92;fill-rule:nonzero;fill-opacity:0.258824}
   ]]>
  </style>
 </defs>
 <g id="Layer_x0020_1">
  <metadata id="CorelCorpID_0Corel-Layer"/>
  <g id="_2573702265200">
   <path class="fil0" d="M1155.39 778.68c0,61.28 -258.64,110.96 -577.7,110.96 -319.05,0 -577.69,-49.68 -577.69,-110.96 0,-61.29 258.64,-110.97 577.69,-110.97 319.06,0 577.7,49.68 577.7,110.97z"/>
   <path class="fil1" d="M905.73 652.13c0,11.32 -9.18,20.49 -20.5,20.49l-622.13 0c-11.31,0 -20.49,-9.17 -20.49,-20.49l0 -397.19c0,-11.32 9.18,-20.49 20.49,-20.49l622.13 0c11.32,0 20.5,9.17 20.5,20.49l0 397.19z"/>
   <path class="fil1" d="M1008.09 797.04l-888.98 0 0 14.89c0,8.22 6.67,14.89 14.89,14.89l880.83 0c8.22,0 14.88,-6.67 14.88,-14.89l0 -16.65 -21.62 1.76z"/>
   <path class="fil2" d="M1027.88 791.34c7.67,7.62 -9.4,13.99 -38.41,13.99l-830.05 0c-29.56,0 -47.92,-4.49 -38.17,-14.13l121.02 -111.25c4.48,-4.12 24.85,-7.36 45.6,-7.32l584.19 0.85c20.47,0.03 40.33,3.3 44.46,7.4l111.36 110.46z"/>
   <path class="fil3" d="M233.9 737.29l684.47 0.51 -48.96 -56.83 -581.53 -0.8 -53.98 57.12zm697.96 3.14l-711.86 -0.52 60.09 -61.63 597.15 0.84 54.62 61.31z"/>
   <polygon class="fil1" points="323.3,686.71 288.94,686.67 292.8,682.48 326.73,682.53 "/>
   <polygon class="fil1" points="826.82,687.37 792.83,687.33 790.28,683.15 823.84,683.2 "/>
   <polygon class="fil1" points="785.12,687.32 751.1,687.27 749.08,683.1 782.67,683.14 "/>
   <polygon class="fil1" points="743.39,687.26 709.34,687.22 707.84,683.05 741.46,683.09 "/>
   <polygon class="fil1" points="701.62,687.21 667.53,687.16 666.57,682.99 700.22,683.03 "/>
   <polygon class="fil1" points="659.8,687.15 625.69,687.11 625.26,682.93 658.94,682.98 "/>
   <polygon class="fil1" points="617.95,687.1 583.81,687.05 583.91,682.88 617.62,682.92 "/>
   <polygon class="fil1" points="576.06,687.04 541.89,687 542.52,682.82 576.26,682.87 "/>
   <polygon class="fil1" points="534.14,686.99 499.93,686.95 501.1,682.77 534.87,682.81 "/>
   <polygon class="fil1" points="492.17,686.94 457.93,686.89 459.63,682.71 493.44,682.75 "/>
   <polygon class="fil1" points="450.16,686.88 415.89,686.83 418.13,682.65 451.97,682.7 "/>
   <polygon class="fil1" points="408.12,686.82 373.82,686.78 376.59,682.6 410.46,682.64 "/>
   <polygon class="fil1" points="366.03,686.77 331.7,686.73 335.02,682.54 368.91,682.59 "/>
   <polygon class="fil1" points="868.96,687.43 835.01,687.38 831.92,683.21 865.45,683.26 "/>
   <polygon class="fil1" points="313.3,694.22 282,694.19 287.81,687.89 318.53,687.93 "/>
   <polygon class="fil1" points="355.88,694.28 324.6,694.24 329.61,687.94 360.3,687.98 "/>
   <polygon class="fil1" points="397.79,694.33 366.54,694.29 370.77,687.99 401.43,688.03 "/>
   <polygon class="fil1" points="439.67,694.38 408.44,694.34 411.88,688.05 442.51,688.09 "/>
   <polygon class="fil1" points="481.5,694.43 450.3,694.39 452.96,688.1 483.56,688.14 "/>
   <polygon class="fil1" points="523.29,694.48 492.13,694.44 494,688.15 524.58,688.19 "/>
   <polygon class="fil1" points="565.05,694.53 533.92,694.49 535,688.21 565.55,688.25 "/>
   <polygon class="fil1" points="606.77,694.58 575.67,694.55 575.97,688.26 606.49,688.3 "/>
   <polygon class="fil1" points="648.45,694.63 617.38,694.6 616.9,688.31 647.39,688.35 "/>
   <polygon class="fil1" points="690.1,694.68 659.05,694.65 657.79,688.36 688.26,688.4 "/>
   <polygon class="fil1" points="731.7,694.74 700.69,694.7 698.65,688.42 729.09,688.46 "/>
   <polygon class="fil1" points="773.27,694.79 742.28,694.75 739.47,688.47 769.88,688.51 "/>
   <polygon class="fil1" points="814.8,694.84 783.84,694.8 780.25,688.52 810.63,688.56 "/>
   <polygon class="fil1" points="875.28,694.91 823.11,694.85 818.78,688.57 869.99,688.64 "/>
   <polygon class="fil1" points="845.6,696.53 876.67,696.57 882.22,703.15 850.55,703.12 "/>
   <polygon class="fil1" points="803.65,696.48 834.76,696.52 839.48,703.1 807.78,703.07 "/>
   <polygon class="fil1" points="761.66,696.43 792.79,696.47 796.72,703.06 764.98,703.02 "/>
   <polygon class="fil1" points="719.64,696.38 750.79,696.42 753.89,703.01 722.13,702.97 "/>
   <polygon class="fil1" points="677.57,696.33 708.75,696.37 711.04,702.96 679.24,702.92 "/>
   <polygon class="fil1" points="635.45,696.28 666.68,696.32 668.14,702.91 636.31,702.88 "/>
   <polygon class="fil1" points="593.31,696.23 624.56,696.27 625.2,702.86 593.34,702.82 "/>
   <polygon class="fil1" points="551.12,696.18 582.4,696.22 582.22,702.81 550.33,702.78 "/>
   <polygon class="fil1" points="508.9,696.13 540.2,696.17 539.2,702.77 507.28,702.73 "/>
   <polygon class="fil1" points="466.64,696.08 497.97,696.12 496.13,702.72 464.19,702.68 "/>
   <polygon class="fil1" points="424.33,696.03 455.69,696.07 453.03,702.67 421.06,702.63 "/>
   <polygon class="fil1" points="381.98,695.98 413.38,696.01 409.89,702.62 377.88,702.58 "/>
   <polygon class="fil1" points="339.61,695.93 371.03,695.96 366.7,702.57 334.67,702.53 "/>
   <polygon class="fil1" points="280.46,695.85 333.52,695.92 328.46,702.53 274.36,702.47 "/>
   <polygon class="fil1" points="271.39,705.67 333.65,705.74 328.44,712.75 264.93,712.68 "/>
   <polygon class="fil1" points="823.42,706.28 884.92,706.35 890.79,713.32 828.07,713.25 "/>
   <polygon class="fil1" points="775.76,706.23 807.78,706.26 812.12,713.24 779.45,713.2 "/>
   <polygon class="fil1" points="732.53,706.18 764.58,706.21 768.05,713.19 735.35,713.16 "/>
   <polygon class="fil1" points="689.24,706.13 721.33,706.17 723.93,713.15 691.2,713.11 "/>
   <polygon class="fil1" points="645.93,706.08 678.04,706.12 679.78,713.1 647.02,713.07 "/>
   <polygon class="fil1" points="602.57,706.04 634.71,706.07 635.58,713.06 602.79,713.02 "/>
   <polygon class="fil1" points="559.17,705.99 591.34,706.03 591.34,713.01 558.51,712.98 "/>
   <polygon class="fil1" points="515.72,705.94 547.93,705.98 547.05,712.97 514.19,712.93 "/>
   <polygon class="fil1" points="472.24,705.89 504.48,705.93 502.72,712.92 469.83,712.89 "/>
   <polygon class="fil1" points="428.71,705.85 460.98,705.88 458.34,712.88 425.42,712.84 "/>
   <polygon class="fil1" points="385.14,705.8 417.44,705.83 413.93,712.83 380.98,712.8 "/>
   <polygon class="fil1" points="341.53,705.75 373.86,705.79 369.47,712.79 336.49,712.75 "/>
   <polygon class="fil1" points="263.19,714.56 327.05,714.62 321.57,721.99 256.39,721.93 "/>
   <polygon class="fil1" points="803.88,715.1 891.2,715.18 897.35,722.52 808.24,722.43 "/>
   <polygon class="fil1" points="759.57,715.05 792.41,715.08 796.55,722.42 763.03,722.39 "/>
   <polygon class="fil1" points="717.18,715.01 750.06,715.04 753.33,722.38 719.77,722.35 "/>
   <polygon class="fil1" points="674.76,714.97 707.68,715 710.06,722.34 676.47,722.31 "/>
   <polygon class="fil1" points="632.29,714.92 665.24,714.96 666.76,722.31 633.13,722.27 "/>
   <polygon class="fil1" points="589.79,714.88 622.77,714.91 623.41,722.27 589.76,722.24 "/>
   <polygon class="fil1" points="547.25,714.84 580.26,714.87 580.02,722.23 546.33,722.2 "/>
   <polygon class="fil1" points="504.67,714.8 537.71,714.83 536.59,722.19 502.87,722.16 "/>
   <polygon class="fil1" points="462.05,714.76 495.12,714.79 493.12,722.15 459.37,722.12 "/>
   <polygon class="fil1" points="419.39,714.71 452.49,714.75 449.61,722.11 415.82,722.07 "/>
   <polygon class="fil1" points="376.68,714.67 409.81,714.7 406.05,722.06 372.23,722.04 "/>
   <polygon class="fil1" points="333.94,714.63 367.1,714.66 362.45,722.03 328.61,722 "/>
   <polygon class="fil1" points="383.45,725.77 417.6,725.8 413.88,733.64 379,733.61 "/>
   <polygon class="fil1" points="339.38,725.74 373.57,725.77 368.91,733.6 334,733.57 "/>
   <polygon class="fil1" points="295.27,725.7 329.5,725.73 323.9,733.57 288.94,733.54 "/>
   <polygon class="fil1" points="251.12,725.66 285.37,725.69 278.83,733.53 243.84,733.5 "/>
   <polygon class="fil1" points="723.94,726.07 757.84,726.1 761.37,733.91 726.75,733.88 "/>
   <polygon class="fil1" points="680.21,726.03 714.14,726.06 716.74,733.88 682.09,733.85 "/>
   <polygon class="fil1" points="866.61,730.06 900.76,730.08 904.03,734.02 869.52,734 "/>
   <polygon class="fil1" points="820.15,726.16 853.97,726.19 859.54,733.99 825,733.96 "/>
   <polygon class="fil1" points="771.23,729.97 805.45,730 807.72,733.95 773.14,733.92 "/>
   <polygon class="fil1" points="442.05,725.82 656.29,726.01 657.67,733.83 438.86,733.66 "/>
   <path class="fil3" d="M723.21 785.29c2.29,7.42 -19.13,13.64 -47.92,13.64l-202.24 -0.02c-28.93,0 -49.99,-6.24 -47.09,-13.69l11.52 -29.64c2.43,-6.25 24.9,-11.15 50.26,-11.13l177.24 0.12c25.24,0.01 47.2,4.93 49.12,11.16l9.11 29.56z"/>
   <path class="fil4" d="M425.96 785.22l11.52 -29.64c2.27,-5.84 22.06,-10.5 45.29,-11.07 -0.54,-0.31 -1.08,-0.59 -1.62,-0.85 -24.43,0.77 -45.14,5.73 -47.61,11.91l-11.81 29.65c-2.81,7.05 14.28,13.14 39.71,14.56 0.76,-0.35 1.55,-0.71 2.34,-1.11 -24.05,-1.18 -40.39,-6.83 -37.82,-13.45z"/>
   <path class="fil4" d="M664.81 743.66l-176.83 -0.12c-2.31,0 -4.57,0.05 -6.83,0.12 0.54,0.26 1.08,0.54 1.62,0.85 1.63,-0.04 3.29,-0.07 4.97,-0.06l177.24 0.12c1.2,0 2.39,0.02 3.57,0.04 0.36,-0.32 0.7,-0.62 1.03,-0.88 -1.58,-0.04 -3.17,-0.06 -4.77,-0.07z"/>
   <path class="fil4" d="M675.29 798.93l-202.24 -0.02c-3.19,0 -6.27,-0.09 -9.27,-0.24 -0.79,0.4 -1.58,0.76 -2.34,1.11 3.62,0.2 7.4,0.31 11.29,0.31l202.79 0.01c1.67,0 3.31,-0.03 4.94,-0.06 -0.53,-0.39 -1.02,-0.78 -1.53,-1.16 -1.21,0.02 -2.41,0.05 -3.64,0.05z"/>
   <path class="fil4" d="M669.58 743.73c-0.33,0.26 -0.67,0.56 -1.03,0.88 23.68,0.45 43.72,5.18 45.55,11.12l9.11 29.56c2.19,7.1 -17.34,13.08 -44.28,13.59 0.51,0.38 1,0.77 1.53,1.16 28.72,-0.69 49.37,-7.15 46.95,-14.75l-9.4 -29.56c-2.01,-6.33 -23.26,-11.42 -48.43,-12z"/>
   <polygon class="fil5" points="268.25,288.05 268.25,646.08 880.08,646.08 880.08,288.05 "/>
   <polygon class="fil6" points="880.08,261.55 268.25,261.55 268.25,299.43 880.08,299.43 "/>
   <path class="fil7" d="M372.72 49.71l0 506.64c0,6.48 5.04,11.74 11.26,11.74l438.97 0c6.21,0 11.25,-5.26 11.25,-11.74l0 -506.64 -461.48 0z"/>
   <polygon class="fil8" points="372.72,49.71 834.21,49.71 834.21,24.46 372.72,24.46 "/>
   <path class="fil6" d="M834.2 11.26c0,-6.22 -5.04,-11.26 -11.25,-11.26l-438.97 0c-6.22,0 -11.26,5.04 -11.26,11.26l0 13.19 461.48 0 0 -13.19z"/>
   <polygon class="fil9" points="474.15,44.93 723.77,44.93 723.77,31.1 474.15,31.1 "/>
   <path class="fil10" d="M753.93 39.98c-2.33,0 -4.22,-1.88 -4.22,-4.22 0,-2.33 1.89,-4.22 4.22,-4.22 2.33,0 4.22,1.89 4.22,4.22 0,2.34 -1.89,4.22 -4.22,4.22zm-7.33 2.88l-0.09 -0.14 0.09 0.14 -3.4 2.27c-0.22,0.14 -0.46,0.21 -0.71,0.21 -0.41,0 -0.82,-0.19 -1.06,-0.56 -0.15,-0.22 -0.22,-0.47 -0.22,-0.71 0,-0.41 0.2,-0.82 0.57,-1.07l3.41 -2.27c0.21,-0.14 0.46,-0.21 0.71,-0.21 0.41,0 0.82,0.21 1.06,0.57 0.14,0.22 0.21,0.46 0.21,0.71 0,0.41 -0.2,0.82 -0.57,1.06zm13.62 -6.96c0,-2.9 -1.99,-5.52 -4.94,-6.22 -0.49,-0.11 -0.98,-0.17 -1.46,-0.17l-0.05 0 0 0c-2.89,0.03 -5.48,2.01 -6.17,4.94 -0.12,0.49 -0.17,0.98 -0.17,1.47 0,0.55 0.07,1.09 0.21,1.62l0.03 0.11 -0.35 0.24 -0.32 0.23 -6.29 4.45c-0.54,0.39 -0.84,1 -0.84,1.62l0 0.03 0 0.02c0,0.39 0.12,0.78 0.37,1.12l0.21 0.3c0.39,0.56 1.01,0.85 1.63,0.85l0.01 0 0 0c0.39,0 0.8,-0.12 1.15,-0.37l0.28 -0.2 0 0.01 5.36 -3.8 0.28 -0.19 1.08 -0.76 0.1 0.06c0.6,0.4 1.28,0.7 2.02,0.87 0.49,0.12 0.98,0.17 1.47,0.17l0 0c2.9,0 5.51,-1.98 6.21,-4.91l0 0 0.01 -0.03c0.11,-0.48 0.17,-0.97 0.17,-1.45l0 -0.01z"/>
   <path class="fil11" d="M408.04 15.36c0,3.99 -3.23,7.23 -7.23,7.23 -3.99,0 -7.22,-3.24 -7.22,-7.23 0,-3.99 3.23,-7.23 7.22,-7.23 4,0 7.23,3.24 7.23,7.23z"/>
   <path class="fil11" d="M428.89 15.36c0,3.99 -3.24,7.23 -7.23,7.23 -4,0 -7.24,-3.24 -7.24,-7.23 0,-3.99 3.24,-7.23 7.24,-7.23 3.99,0 7.23,3.24 7.23,7.23z"/>
   <path class="fil11" d="M449.73 15.36c0,3.99 -3.24,7.23 -7.23,7.23 -3.99,0 -7.23,-3.24 -7.23,-7.23 0,-3.99 3.24,-7.23 7.23,-7.23 3.99,0 7.23,3.24 7.23,7.23z"/>
   <polygon class="fil6" points="648.65,203.67 790.58,203.67 790.58,194.5 648.65,194.5 "/>
   <polygon class="fil6" points="648.65,224.39 790.58,224.39 790.58,215.22 648.65,215.22 "/>
   <polygon class="fil6" points="648.65,281.94 753.54,281.94 753.54,272.77 648.65,272.77 "/>
   <polygon class="fil6" points="648.65,265.77 800.85,265.77 800.85,256.6 648.65,256.6 "/>
   <polygon class="fil6" points="648.65,242 779.95,242 779.95,232.83 648.65,232.83 "/>
   <polygon class="fil12" points="408.04,183.39 800.85,183.39 800.85,49.7 408.04,49.7 "/>
   <polygon class="fil13" points="435.27,175.54 531.78,175.54 531.78,79.02 435.27,79.02 "/>
   <path class="fil14" d="M437.61 173.2l91.83 0 0 -91.83 -91.83 0 0 91.83zm96.52 4.68l-101.2 0 0 -101.2 101.2 0 0 101.2z"/>
   <polygon class="fil14" points="437.06,175.54 463.66,115.26 488.48,159.58 507.98,125.9 527.49,175.54 "/>
   <path class="fil14" d="M508.07 97.31c0,3.96 -3.22,7.18 -7.19,7.18 -3.96,0 -7.18,-3.22 -7.18,-7.18 0,-3.97 3.22,-7.18 7.18,-7.18 3.97,0 7.19,3.21 7.19,7.18z"/>
   <polygon class="fil6" points="648.65,365.74 785.04,365.74 785.04,359.05 648.65,359.05 "/>
   <polygon class="fil6" points="648.65,350.62 785.04,350.62 785.04,343.93 648.65,343.93 "/>
   <polygon class="fil6" points="648.65,308.62 749.44,308.62 749.44,301.93 648.65,301.93 "/>
   <polygon class="fil6" points="648.65,320.42 794.91,320.42 794.91,313.73 648.65,313.73 "/>
   <polygon class="fil6" points="648.65,337.77 774.83,337.77 774.83,331.08 648.65,331.08 "/>
   <path class="fil15" d="M794.91 403.78c0,-2.86 -2.32,-5.18 -5.18,-5.18l-139.47 0c-2.86,0 -5.18,2.32 -5.18,5.18l0 76.43 149.83 0 0 -76.43z"/>
   <path class="fil15" d="M645.08 480.21l0 8.68c0,2.86 2.32,5.17 5.18,5.17l139.47 0c2.86,0 5.18,-2.31 5.18,-5.17l0 -8.68 -149.83 0z"/>
   <path class="fil16" d="M744.74 439.4c0,12.42 -10.07,22.49 -22.49,22.49 -12.42,0 -22.5,-10.07 -22.5,-22.49 0,-12.42 10.08,-22.49 22.5,-22.49 12.42,0 22.49,10.07 22.49,22.49z"/>
   <polygon class="fil16" points="645.08,480.21 693.45,480.21 693.45,477.94 645.08,477.94 "/>
   <polygon class="fil17" points="693.45,480.21 794.91,480.21 794.91,477.94 693.45,477.94 "/>
   <path class="fil17" d="M685.91 479.07c0,1.47 -1.2,2.66 -2.67,2.66 -1.47,0 -2.66,-1.19 -2.66,-2.66 0,-1.47 1.19,-2.66 2.66,-2.66 1.47,0 2.67,1.19 2.67,2.66z"/>
   <polygon class="fil17" points="655.21,486.78 655.21,484.02 657.59,485.4 659.98,486.78 657.59,488.15 655.21,489.53 "/>
   <polygon class="fil17" points="665.14,489.53 666.15,489.53 666.15,484.02 665.14,484.02 "/>
   <polygon class="fil17" points="663.17,489.53 664.19,489.53 664.19,484.02 663.17,484.02 "/>
   <polygon class="fil17" points="669.96,489.46 675.33,489.46 675.33,484.09 669.96,484.09 "/>
   <polygon class="fil17" points="768.32,485.32 766.83,485.32 766.83,488.23 768.32,488.23 770.06,489.21 770.06,484.34 "/>
   <path class="fil17" d="M772.35 486.74c0,-1.2 -0.88,-2.2 -2.04,-2.37l0 0.57c0.84,0.17 1.47,0.92 1.47,1.8 0,0.89 -0.63,1.63 -1.47,1.8l0 0.58c1.16,-0.18 2.04,-1.18 2.04,-2.38z"/>
   <path class="fil17" d="M771.61 486.74c0,-0.79 -0.56,-1.45 -1.3,-1.62l0 0.59c0.43,0.15 0.73,0.56 0.73,1.03 0,0.48 -0.3,0.88 -0.73,1.04l0 0.58c0.74,-0.16 1.3,-0.83 1.3,-1.62z"/>
   <path class="fil14" d="M776.43 486.53c0.13,-0.38 0.55,-0.58 0.93,-0.44 0.38,0.13 0.58,0.55 0.44,0.93 -0.13,0.38 -0.55,0.58 -0.93,0.44 -0.38,-0.13 -0.58,-0.55 -0.44,-0.93zm-1.62 0.97l0.29 0.6 0.59 -0.28c0.14,0.19 0.32,0.35 0.53,0.48l-0.22 0.62 0.63 0.22 0.22 -0.62c0.24,0.03 0.48,0.02 0.71,-0.04l0.28 0.6 0.6 -0.29 -0.28 -0.59c0.19,-0.14 0.35,-0.32 0.47,-0.53l0.62 0.22 0.23 -0.63 -0.62 -0.22c0.03,-0.24 0.02,-0.48 -0.04,-0.71l0.59 -0.28 -0.28 -0.6 -0.6 0.28c-0.14,-0.19 -0.31,-0.35 -0.52,-0.48l0.22 -0.61 -0.63 -0.23 -0.22 0.62c-0.24,-0.03 -0.48,-0.02 -0.71,0.04l-0.28 -0.59 -0.61 0.28 0.28 0.6c-0.18,0.13 -0.34,0.31 -0.47,0.52l-0.62 -0.22 -0.22 0.63 0.62 0.22c-0.03,0.24 -0.02,0.48 0.04,0.71l-0.6 0.28z"/>
   <polygon class="fil14" points="783.57,485.08 784.4,485.08 784.4,484.42 782.91,484.42 782.91,485.91 783.57,485.91 "/>
   <polygon class="fil14" points="786.96,485.08 786.96,485.91 787.62,485.91 787.62,484.42 786.13,484.42 786.13,485.08 "/>
   <polygon class="fil14" points="783.57,488.47 783.57,487.64 782.91,487.64 782.91,489.13 784.4,489.13 784.4,488.47 "/>
   <polygon class="fil14" points="786.96,488.47 786.13,488.47 786.13,489.13 787.62,489.13 787.62,487.64 786.96,487.64 "/>
   <polygon class="fil18" points="724.17,434.47 715.86,429.68 728.38,441.9 732.71,439.4 "/>
   <polygon class="fil17" points="715.63,429.54 715.63,449.26 724.17,444.33 728.38,441.9 715.86,429.68 "/>
   <path class="fil17" d="M702.7 442.77c-0.25,0 -0.46,-0.18 -0.51,-0.43 -0.02,-0.09 -0.41,-2.32 -0.04,-5.42 0.34,-2.87 1.44,-7.05 4.7,-10.69 0.19,-0.21 0.52,-0.23 0.73,-0.04 0.22,0.19 0.23,0.52 0.04,0.73 -5.9,6.59 -4.43,15.15 -4.41,15.24 0.05,0.28 -0.14,0.55 -0.42,0.6 -0.03,0 -0.06,0.01 -0.09,0.01z"/>
   <path class="fil17" d="M708.33 425.91c-0.11,0 -0.23,-0.04 -0.32,-0.11 -0.22,-0.19 -0.26,-0.51 -0.08,-0.73 0.06,-0.07 1.4,-1.7 3.7,-2.93 0.25,-0.14 0.57,-0.04 0.7,0.21 0.14,0.26 0.04,0.57 -0.21,0.7 -2.11,1.13 -3.37,2.65 -3.38,2.67 -0.11,0.13 -0.26,0.19 -0.41,0.19z"/>
   <path class="fil17" d="M713.61 422.16c-0.19,0 -0.36,-0.1 -0.46,-0.27 -0.13,-0.25 -0.04,-0.56 0.21,-0.7 0.2,-0.12 5.15,-2.79 12.05,-1.81 0.28,0.04 0.48,0.3 0.44,0.59 -0.04,0.28 -0.3,0.48 -0.58,0.44 -6.55,-0.94 -11.37,1.66 -11.41,1.68 -0.08,0.05 -0.17,0.07 -0.25,0.07z"/>
   <path class="fil17" d="M646.48 411.29c-0.29,0 -0.52,-0.23 -0.52,-0.52l0 -4.06c0,-0.29 0.23,-0.52 0.52,-0.52 0.28,0 0.51,0.23 0.51,0.52l0 4.06c0,0.29 -0.23,0.52 -0.51,0.52z"/>
   <path class="fil17" d="M646.48 405.38c-0.29,0 -0.52,-0.23 -0.52,-0.52 0,-4.31 2.15,-5.21 3.96,-5.21l7.08 0c0.29,0 0.52,0.23 0.52,0.52 0,0.28 -0.23,0.51 -0.52,0.51l-7.08 0c-1.26,0 -2.93,0.44 -2.93,4.18 0,0.29 -0.23,0.52 -0.51,0.52z"/>
   <path class="fil17" d="M662.66 400.68l-3.69 0c-0.28,0 -0.52,-0.23 -0.52,-0.51 0,-0.29 0.24,-0.52 0.52,-0.52l3.69 0c0.29,0 0.52,0.23 0.52,0.52 0,0.28 -0.23,0.51 -0.52,0.51z"/>
   <polygon class="fil6" points="648.65,539.31 785.04,539.31 785.04,536.14 648.65,536.14 "/>
   <polygon class="fil6" points="648.65,532.13 785.04,532.13 785.04,528.96 648.65,528.96 "/>
   <polygon class="fil6" points="648.65,512.21 749.44,512.21 749.44,509.03 648.65,509.03 "/>
   <polygon class="fil6" points="648.65,517.81 794.91,517.81 794.91,514.63 648.65,514.63 "/>
   <polygon class="fil6" points="648.65,526.04 774.83,526.04 774.83,522.87 648.65,522.87 "/>
   <polygon class="fil6" points="408.04,239.53 544.43,239.53 544.43,236.35 408.04,236.35 "/>
   <polygon class="fil6" points="408.04,232.35 544.43,232.35 544.43,229.18 408.04,229.18 "/>
   <polygon class="fil6" points="408.04,212.43 508.84,212.43 508.84,209.25 408.04,209.25 "/>
   <polygon class="fil6" points="408.04,218.03 554.3,218.03 554.3,214.85 408.04,214.85 "/>
   <polygon class="fil6" points="408.04,226.26 534.22,226.26 534.22,223.08 408.04,223.08 "/>
   <polygon class="fil14" points="264.61,640.82 623.22,640.82 623.22,257.09 264.61,257.09 "/>
   <polygon class="fil19" points="435.43,288.15 603.46,288.15 603.46,279.94 435.43,279.94 "/>
   <polygon class="fil19" points="435.43,315.63 603.46,315.63 603.46,307.43 435.43,307.43 "/>
   <polygon class="fil19" points="435.43,343.11 603.46,343.11 603.46,334.91 435.43,334.91 "/>
   <polygon class="fil19" points="435.43,370.6 603.46,370.6 603.46,362.4 435.43,362.4 "/>
   <polygon class="fil19" points="435.43,398.08 603.46,398.08 603.46,389.88 435.43,389.88 "/>
   <polygon class="fil19" points="435.43,425.57 603.46,425.57 603.46,417.37 435.43,417.37 "/>
   <polygon class="fil19" points="277.57,453.06 603.46,453.06 603.46,444.85 277.57,444.85 "/>
   <polygon class="fil19" points="277.57,482.15 603.46,482.15 603.46,473.95 277.57,473.95 "/>
   <polygon class="fil19" points="277.57,511.26 603.46,511.26 603.46,503.05 277.57,503.05 "/>
   <polygon class="fil19" points="277.57,540.36 603.46,540.36 603.46,532.15 277.57,532.15 "/>
   <polygon class="fil19" points="277.57,569.46 603.46,569.46 603.46,561.25 277.57,561.25 "/>
   <polygon class="fil19" points="277.57,598.56 603.46,598.56 603.46,590.35 277.57,590.35 "/>
   <path class="fil20" d="M340.54 358.58l-8.98 -28.16c-2.04,-6.39 -3.4,-12.2 -4.76,-17.86l-0.27 0c-1.36,5.8 -2.86,11.76 -4.63,17.71l-8.98 28.31 27.62 0zm-30.06 9.88l-9.53 30.78 -12.24 0 31.15 -97.86 14.29 0 31.29 97.86 -12.65 0 -9.8 -30.78 -32.51 0z"/>
   <path class="fil21" d="M377.91 350.81l-6.47 -20.31c-1.48,-4.6 -2.46,-8.79 -3.44,-12.87l-0.19 0c-0.98,4.19 -2.06,8.48 -3.34,12.77l-6.47 20.41 19.91 0zm-21.68 7.11l-6.86 22.19 -8.83 0 22.46 -70.54 10.3 0 22.55 70.54 -9.12 0 -7.06 -22.19 -23.44 0z"/>
   <path class="fil22" d="M384.75 723.49c0,0 41.19,-27.82 49.97,-14.64 8.78,13.18 0.42,37.86 -58.55,57.41l-29.42 -6.24 -2.57 0 0 -32.13 40.57 -4.4z"/>
   <path class="fil22" d="M305.79 723.49c0,0 -41.19,-27.82 -49.97,-14.64 -8.79,13.18 -0.42,37.86 58.54,57.41l29.43 -6.24 2.56 0 0 -32.13 -40.56 -4.4z"/>
   <path class="fil16" d="M360.52 629.04c0,0 31.79,5.24 34.43,12.11 2.65,6.86 20.13,50.3 15.89,56.66 -4.23,6.35 -14.3,17.84 -34.43,19.78l-1.59 -17.67 11.19 -13.28 0 -9.31 -18.6 28.42 -48.73 0 -10.07 -28.42 -2.65 9.31 10.6 22.21 -3.71 8.74c0,0 -26.49,-9.19 -30.72,-18.2 -4.24,-9 13.77,-58.2 20.66,-63.26 6.88,-5.07 30.19,-7.6 30.19,-7.6l27.54 0.51z"/>
   <path class="fil23" d="M361.37 624.05l0 14.56c0,0 -2.43,8.32 -13.17,8.32 -10.75,0 -15.78,-7.8 -15.78,-7.8l0 -20.11 28.95 5.03z"/>
   <path class="fil24" d="M362.24 616.25l4.33 -1.74c0,0 3.81,-8.51 3.81,-10.58 0,-2.07 2.95,-20.27 -5.54,-24.08 0,0 -1.04,-8.67 -16.12,-8.15 -15.08,0.52 -26,11.09 -24.62,20.97 1.39,9.88 3.82,22.19 4.68,22.19 0.87,0 33.46,1.39 33.46,1.39z"/>
   <polygon class="fil25" points="371.65,733.3 379.06,733.3 393.89,717.59 299.61,717.59 316.03,733.3 "/>
   <polygon class="fil26" points="346.5,733.3 379.06,733.3 393.89,684.46 299.61,684.46 316.03,733.3 "/>
   <path class="fil27" d="M364.84 616.98c0,0 -0.52,20.93 -16.82,20.93 -16.29,0 -18.2,-19.58 -18.2,-19.58l-1.04 -20.5 23.75 -8.62 12.31 8.62 0 19.15z"/>
   <path class="fil27" d="M363.94 610.72c-0.83,3.3 0.01,6.36 1.87,6.82 1.86,0.47 4.04,-1.83 4.86,-5.14 0.83,-3.3 0,-6.36 -1.86,-6.82 -1.86,-0.47 -4.04,1.83 -4.87,5.14z"/>
   <path class="fil27" d="M330.15 610.72c0.83,3.3 -0.01,6.36 -1.87,6.82 -1.86,0.47 -4.03,-1.83 -4.86,-5.14 -0.83,-3.3 0,-6.36 1.86,-6.82 1.86,-0.47 4.04,1.83 4.87,5.14z"/>
   <path class="fil24" d="M331.31 631.13c-3.42,-5.87 -5.58,-15.99 -3.85,-33.3 0,0 3.07,20.85 5.09,24 1.07,1.68 2.73,1.57 4.9,1.1 7.89,-2.32 14.6,-0.74 16.37,-0.23 2.68,0.63 4.69,1.07 5.93,-0.87 2.02,-3.15 5.09,-24 5.09,-24 1.58,15.8 0,25.6 -2.79,31.63l0 0c0,0 -3.81,10.28 -15.15,10.28 -3.6,0 -6.48,-0.86 -8.74,-2.04 -1.86,-0.88 -3.79,-2.3 -5.51,-4.56 -0.92,-1.16 -1.34,-2.01 -1.34,-2.01l0 0z"/>
   <path class="fil27" d="M339.62 627.49c0,0.66 0.53,1.19 1.19,1.19l10.06 0c0.66,0 1.19,-0.53 1.19,-1.19l0 0c0,-0.66 -0.53,-1.2 -1.19,-1.2l-10.06 0c-0.66,0 -1.19,0.54 -1.19,1.2l0 0z"/>
   <polygon class="fil28" points="357.77,742.94 357.77,754.65 345.02,762.39 336.45,754.02 "/>
   <path class="fil29" d="M381.4 759.23l2.72 -3.64c0,0 10.16,1.4 6.96,11.83 -3.2,10.44 -31.89,4.79 -44.73,-1.16 -12.83,-5.96 35.05,-7.03 35.05,-7.03z"/>
   <path class="fil6" d="M344.18 761.86c0,0 -1.1,3.25 2.17,4.4 3.27,1.15 18.12,5.77 22.09,5.86 3.97,0.09 20.73,3.02 22.49,-7.43 1.76,-10.46 -12.24,-9.16 -12.24,-9.16l-32.19 -4.34 -2.32 10.67z"/>
   <path class="fil29" d="M351.5 764.95c0.11,0 0.22,-0.02 0.32,-0.08 4.61,-2.48 3.74,-10.43 3.7,-10.76 -0.04,-0.38 -0.38,-0.64 -0.75,-0.6 -0.38,0.04 -0.64,0.38 -0.6,0.75l0 0c0.01,0.08 0.8,7.36 -2.99,9.41 -0.33,0.18 -0.46,0.59 -0.28,0.92 0.13,0.23 0.36,0.36 0.6,0.36z"/>
   <path class="fil29" d="M355.89 765.79c0.19,0 0.38,-0.08 0.51,-0.23 4.8,-5.45 3.15,-11.32 3.08,-11.57 -0.11,-0.36 -0.49,-0.57 -0.85,-0.46 -0.36,0.11 -0.57,0.49 -0.46,0.85 0,0.02 0.38,1.38 0.23,3.31 -0.21,2.58 -1.22,4.93 -3.02,6.97 -0.25,0.28 -0.22,0.71 0.06,0.96 0.13,0.11 0.29,0.17 0.45,0.17z"/>
   <path class="fil29" d="M360.49 768.11c0.22,0 0.44,-0.11 0.57,-0.31 5.18,-7.75 2.86,-12.39 2.75,-12.59 -0.17,-0.33 -0.58,-0.46 -0.92,-0.28 -0.33,0.17 -0.46,0.58 -0.29,0.91 0.02,0.03 0.52,1.06 0.45,2.91 -0.07,1.75 -0.66,4.61 -3.12,8.29 -0.21,0.32 -0.13,0.74 0.18,0.95 0.12,0.08 0.25,0.12 0.38,0.12z"/>
   <path class="fil29" d="M307.23 757.4l-2.72 -3.64c0,0 -10.16,1.4 -6.96,11.84 3.2,10.43 31.9,4.79 44.73,-1.17 12.84,-5.96 -35.05,-7.03 -35.05,-7.03z"/>
   <path class="fil6" d="M344.45 760.03c0,0 1.1,3.25 -2.17,4.4 -3.26,1.15 -18.11,5.78 -22.08,5.87 -3.98,0.09 -20.73,3.01 -22.5,-7.44 -1.76,-10.46 12.25,-9.16 12.25,-9.16l32.19 -4.34 2.31 10.67z"/>
   <path class="fil29" d="M337.13 763.12c-0.11,0 -0.22,-0.02 -0.32,-0.08 -4.6,-2.48 -3.74,-10.42 -3.7,-10.76 0.04,-0.38 0.38,-0.64 0.76,-0.6 0.37,0.04 0.64,0.38 0.6,0.75l0 0c-0.01,0.08 -0.8,7.37 2.99,9.41 0.33,0.18 0.45,0.59 0.27,0.92 -0.12,0.23 -0.35,0.36 -0.6,0.36z"/>
   <path class="fil29" d="M332.74 763.96c-0.19,0 -0.38,-0.08 -0.51,-0.23 -4.79,-5.45 -3.14,-11.32 -3.07,-11.56 0.11,-0.37 0.49,-0.57 0.85,-0.47 0.36,0.11 0.57,0.49 0.46,0.85 -0.01,0.03 -0.39,1.38 -0.23,3.31 0.21,2.59 1.22,4.93 3.02,6.97 0.24,0.28 0.22,0.71 -0.07,0.96 -0.13,0.11 -0.29,0.17 -0.45,0.17z"/>
   <path class="fil29" d="M328.14 766.28c-0.22,0 -0.43,-0.11 -0.57,-0.31 -5.18,-7.75 -2.85,-12.39 -2.75,-12.59 0.18,-0.33 0.59,-0.46 0.92,-0.28 0.33,0.17 0.46,0.58 0.29,0.91 -0.01,0.03 -0.51,1.06 -0.44,2.91 0.06,1.75 0.66,4.61 3.12,8.3 0.21,0.31 0.12,0.73 -0.19,0.94 -0.12,0.08 -0.25,0.12 -0.38,0.12z"/>
   <path class="fil28" d="M335.61 745.98l-3.76 12.85 14.5 3.56c0,0 4.73,-1.46 3.69,-6.8 -1.05,-5.33 -14.43,-9.61 -14.43,-9.61z"/>
   <path class="fil22" d="M335.61 745.98l-3.76 12.85c0,0 -27.4,-4.41 -37.01,-7.64 -9.62,-3.23 13.59,-14.1 13.59,-14.1l27.18 8.89z"/>
   <polygon class="fil30" points="965.23,496.46 982.19,478 977.07,467.87 956.13,488.51 959.14,497.24 "/>
   <polygon class="fil14" points="979.9,477.36 965.6,493.44 960.66,486.35 976.49,470.53 "/>
   <path class="fil22" d="M972.19 740.59c-4.44,-0.82 -22,-8.65 -27.85,-10.09 -0.12,-1.63 0,-3.77 0.44,-6.59 1.81,-11.64 15.39,-3.73 15.39,-3.73 0,0 7.16,5.82 11.76,8.35 4.61,2.53 14.31,4.98 14.75,7.48 0.12,0.72 0.27,1.41 0.37,2.04 -3.41,1.05 -11.17,3.23 -14.86,2.54z"/>
   <path class="fil6" d="M972.19 740.59c3.69,0.69 11.45,-1.49 14.86,-2.54 0.27,1.53 0.31,2.69 -0.69,3.1 -1.4,0.58 -12.32,2.44 -16.14,1.96 -3.82,-0.47 -18.18,-4.77 -20.91,-6.19 -2.06,-1.07 -4.64,-1.31 -4.97,-6.42 5.85,1.44 23.41,9.27 27.85,10.09z"/>
   <path class="fil22" d="M945.19 742.34c-4.36,-1.22 -21.14,-10.62 -26.83,-12.58 0.04,-1.64 0.35,-3.75 1.05,-6.53 2.86,-11.42 15.65,-2.31 15.65,-2.31 0,0 6.61,6.45 10.97,9.39 4.35,2.94 13.79,6.26 14,8.79 0.06,0.73 0.14,1.43 0.19,2.06 -3.5,0.74 -11.43,2.2 -15.03,1.18z"/>
   <path class="fil6" d="M945.19 742.34c3.6,1.02 11.53,-0.44 15.03,-1.18 0.12,1.55 0.06,2.72 -0.98,3.03 -1.45,0.45 -12.5,1.31 -16.25,0.49 -3.77,-0.83 -17.67,-6.41 -20.25,-8.07 -1.96,-1.26 -4.51,-1.73 -4.38,-6.85 5.69,1.96 22.47,11.36 26.83,12.58z"/>
   <path class="fil31" d="M954.34 473l2.34 3.08c0,0 3.05,39.05 4.06,46.8 1.02,7.76 7.76,37.75 6.07,41.46 -1.68,3.71 -6.1,-6.4 -6.1,-6.4l-15.53 -79.21 9.16 -5.73z"/>
   <path class="fil6" d="M954.34 554.23l12.47 10.11c0,0 2.56,18.21 0.27,31.69 -2.29,13.48 2.96,46.51 0,53.93 -2.97,7.41 -5.04,71.7 -5.04,71.7 0,0 -13.67,1.24 -17.38,0.57 -3.71,-0.68 -1.78,-34.85 -1.78,-34.85 0,0 -1.01,-37.76 0,-40.45 1.01,-2.7 -4.05,-43.15 -4.05,-43.15 0,0 -2.02,49.21 -2.36,61.01 -0.33,11.8 0.29,57.3 0.29,57.3 0,0 -14.12,1.13 -17.61,-0.35 -3.12,-1.32 -7.28,-70.39 -9.3,-79.85 -2.03,-9.46 -7.76,-45.86 -7.76,-45.86 0,0 -6.74,-19.21 -2.02,-33.71 4.72,-14.49 54.27,-8.09 54.27,-8.09z"/>
   <path class="fil32" d="M894.44 443.39l2.95 -2.31c0,0 20.51,6.72 28.26,4.79l-0.78 -2.48c0,0 13.39,0 21.13,5.9 7.76,5.9 10.29,23.26 10.96,28.98l-5.06 1.36c0,0 1.86,24.6 1.86,26.28 0,1.26 2.72,26.55 5.3,41.74l3.12 10.67c0,0 -16.85,11.29 -24.26,11.46 -7.42,0.17 -39.77,0 -39.77,0 0,0 -1.69,-27.3 -2.87,-32.36 -1.17,-5.05 -13.13,-34.88 -14.83,-42.29 -1.68,-7.42 -13.47,-36.57 13.99,-51.74z"/>
   <path class="fil33" d="M928.71 439.07c0,0 0.19,4.58 1.21,7.3 1.03,2.71 1.69,10.01 -2.61,10.76 -4.31,0.75 -23.5,-4.14 -30.33,-15.31 0,0 3,-5.09 3.93,-9.49 0.93,-4.4 3.19,-14.41 1.97,-18.44 -1.22,-4.02 0.27,-19.96 4.02,-20.27 3.74,-0.31 21.81,45.45 21.81,45.45z"/>
   <path class="fil31" d="M905.85 416.62c0,0 -2.05,13.56 8.81,18.76 10.84,5.2 17.55,7.51 19.01,5.96 1.46,-1.55 1.49,-3.3 1.77,-3.96 0.29,-0.65 1.5,-1.59 1.41,-2.71 0,0 1.03,-0.28 0.93,-1.68 -0.09,-1.41 0.29,-4.12 0.56,-4.4 0.29,-0.28 3.29,1.59 3.29,-1.41 0,-2.99 -1.13,-7.3 -0.38,-9.07 0.75,-1.78 4.02,-6.56 3.93,-10.21 0,0 -2.44,-17.31 -19.09,-17.4 -16.66,-0.09 -20.22,2.53 -21.25,6.27 -1.03,3.74 0.94,19.39 0.94,19.39l0.07 0.46z"/>
   <path class="fil31" d="M902.77 481.76c0,0 -10.12,8.09 -19.21,11.46 0,0 12.64,31.69 14.57,36.74 1.94,5.06 2.28,3.37 4.64,2.7 2.36,-0.68 51.24,-25.06 57.97,-27.19 6.74,-2.14 11.8,-1.8 13.15,-6.52 1.34,-4.72 0.8,-12.94 2.49,-14.62 1.68,-1.69 -11.4,6.53 -14.2,6.53 -2.79,0 1.26,-6.4 1.26,-9.1 0,-2.7 -3.37,-3.03 -4.05,0 -0.67,3.03 -5.12,4.38 -7.75,9.44 -2.63,5.05 0.13,5.7 -2.63,7.06 -2.76,1.37 -29.58,4.73 -40.1,11.14 0,0 0.26,-16.85 -6.14,-27.64z"/>
   <path class="fil34" d="M900.44 389.47c0.85,-2.72 6.26,-15.67 30.25,-10.95 23.48,4.63 17.29,27.33 15.52,29.57 -0.96,1.21 -3.58,-1.27 -6.76,-4.39 -0.01,-0.01 -6.54,-5.32 -9.94,-5.66 -3.4,-0.34 -11.3,2.08 -14.06,3.43l0 0c-5.11,3.49 -4.34,10.27 -4.34,10.27l-2.94 0.79c0,0 -2.02,-4.16 -4.09,-5 -2.07,-0.84 -0.99,12.27 -0.99,12.27 -8.68,-7.1 -3.48,-27.62 -2.65,-30.33z"/>
   <path class="fil31" d="M908.8 410.41c0.53,3.69 -0.92,6.96 -3.27,7.31 -2.35,0.34 -4.69,-2.36 -5.24,-6.05 -0.54,-3.69 0.92,-6.96 3.27,-7.3 2.35,-0.35 4.69,2.36 5.24,6.04z"/>
   <path class="fil34" d="M344.41 148.67c-0.74,-10.47 -11.2,-11.82 -11.2,-18.56 0,-6.75 3.11,-6.78 3.04,-12.35 -0.13,-10.69 -6.14,-8.82 -5.8,-14.55 0.33,-5.74 1.75,-27.74 -18.16,-25.06 0,0 -8.1,-7.78 -19.91,2.69 -11.81,10.46 -4.05,18.89 -5.4,23.28 -1.35,4.39 -8.44,4.05 -8.44,11.47 0,7.43 6.41,8.78 5.07,14.18 -1.05,4.17 -11.95,9.14 -10.33,22.06 9.8,8.32 22.49,13.35 36.35,13.35 13.09,0 25.14,-4.48 34.68,-11.98 0.16,-1.44 0.21,-2.96 0.1,-4.53z"/>
   <path class="fil32" d="M341.96 137.64c-2.91,-1.94 -11.85,-2.6 -18.5,-2.82 -1.76,3.15 -6.24,8.85 -15.66,8.62 -9.4,-0.23 -12.44,-6.36 -13.19,-8.39l-13.87 1.78c-13.69,-0.81 -20.96,28.98 -20.96,28.98l12.92 26.6 5.04 -32.32 5.33 41.91 4.13 7.32 21.74 24.16c20.14,0 19.33,-21.74 19.33,-21.74l0.64 -6.4c-9.33,-2.34 -21.11,-6.49 -21.11,-6.49l0 -8.15 1.39 -0.03 21.21 0.06 2.7 -27.31 -0.8 27.38 -1.91 -0.26 -1.48 14.8c3.66,0.92 6.95,1.56 8.99,1.56 7.25,0 7.28,-7.24 7.28,-7.24 0,0 3.22,-39.47 4.03,-48.32 0.8,-8.86 -2.42,-10.47 -7.25,-13.7z"/>
   <path class="fil12" d="M236.34 346.89c0,0 -12.09,-0.82 -10.23,1.78 1.85,2.61 5.01,6.64 13.18,5.44 8.16,-1.19 7.31,-3.41 11.96,-5.18 4.64,-1.76 11.42,-2.34 11.01,-5.36 -0.41,-3.02 -4.93,-7.11 -5.52,-7.61 -0.59,-0.51 -6.21,1.76 -6.21,1.76l-3.86 5.35 -10.33 3.82z"/>
   <path class="fil35" d="M249.29 333.37l7.19 -0.7 0.26 3.29c0,0 -4.52,0.61 -6.43,4.95 -1.9,4.35 -7.02,7.59 -11.57,7.32 -4.56,-0.28 -3.79,-0.72 -3.79,-0.72 0,0 4.89,-2.51 6.75,-4.6 1.87,-2.1 3.25,-8.31 6.88,-8.89l0.71 -0.65z"/>
   <path class="fil12" d="M166.43 287.15c0,0 -10.59,-5.9 -10.02,-2.75 0.57,3.15 1.71,8.14 9.61,10.54 7.89,2.39 8.07,0.02 13.02,0.41 4.96,0.38 11.33,2.74 12.25,-0.16 0.91,-2.9 -1.43,-8.53 -1.75,-9.24 -0.32,-0.71 -6.37,-1.05 -6.37,-1.05l-5.77 3.19 -10.97 -0.94z"/>
   <path class="fil35" d="M183.91 280.44l6.8 2.43 -1.17 3.08c0,0 -4.35,-1.37 -7.92,1.75 -3.57,3.12 -9.59,3.87 -13.59,1.68 -4.01,-2.19 -3.12,-2.26 -3.12,-2.26 0,0 5.48,-0.19 8.07,-1.29 2.58,-1.1 6.47,-6.13 10.01,-5.11l0.92 -0.28z"/>
   <path class="fil12" d="M181.43 280.58l9.64 3.29c0,0 35.98,-39.97 37.16,-46.32 0,0 89.11,7.99 90.29,-12.23 1.18,-20.22 -21.4,-23.75 -44.44,-25.16 -23.05,-1.41 -47.97,1.41 -47.97,1.41 0,0 -4,2.35 -7.76,8.7 -3.76,6.35 -36.92,70.31 -36.92,70.31z"/>
   <path class="fil36" d="M236.23 229.06c-11.47,4.95 -6.21,16.22 -6.21,16.22 9.47,32.37 15.79,90.81 15.79,90.81l11.85 -2.36c0,0 1.58,-45.81 4.73,-61.6 3.16,-15.8 -6.31,-26.06 -6.31,-26.06l33.95 -7.9c0,0 -38.71,-10.45 -53.8,-9.11z"/>
   <path class="fil37" d="M318.55 134.72c-0.17,-0.18 -0.35,-0.37 -0.53,-0.57 -4.83,-5.43 -1.81,-15.89 -1.81,-15.89l-14.83 0c0,0 1.08,3.77 0.91,7.95 -0.12,2.79 -0.79,5.77 -2.72,7.94 -0.1,0.1 -0.19,0.2 -0.28,0.3l-4.68 0.6c0.75,2.03 3.79,8.16 13.19,8.39 9.42,0.23 13.9,-5.47 15.66,-8.62 -1.88,-0.06 -3.58,-0.09 -4.91,-0.1z"/>
   <path class="fil38" d="M308.79 83.31c-9.95,0 -18.01,10.27 -18.01,22.95 0,12.68 8.06,22.95 18.01,22.95 9.95,0 18.01,-10.27 18.01,-22.95 0,-12.68 -8.06,-22.95 -18.01,-22.95z"/>
   <path class="fil34" d="M316.19 91.26c0,0 -6.37,9.9 -24.96,9.9 0,0 -0.87,-19.81 17.56,-19.81 18.43,0 18.97,18.46 18.97,18.46 0,0 -3.55,-3.38 -11.57,-8.55z"/>
   <polygon class="fil39" points="307.46,190.83 307.53,188.01 332.77,190.96 "/>
   <path class="fil35" d="M309.37 190.23c0,0 -19.47,-3.8 -23.64,5.97l0.47 2.28 12.43 0.76c0,0 2.84,-0.95 3.7,-0.48 0.85,0.48 2.37,1.52 4.55,0.67 2.18,-0.86 3.66,-2.02 3.66,-2.02l-1.17 -7.18z"/>
   <polygon class="fil40" points="212.12,157.81 232.35,199.34 292.5,199.34 274.37,157.72 "/>
   <path class="fil41" d="M301.22 200.17c0,0.52 -0.42,0.96 -0.93,0.96l-67.67 0c-0.52,0 -0.92,-0.46 -0.92,-0.98l0 -0.01c0,-0.51 0.4,-0.9 0.92,-0.9l67.67 0c0.51,0 0.73,-0.02 0.73,0.5l0.2 0.43z"/>
   <path class="fil42" d="M258.07 181.2c0,0.97 -3.16,1.76 -7.05,1.76 -3.9,0 -7.06,-0.79 -7.06,-1.76 0,-0.98 3.16,-1.76 7.06,-1.76 3.89,0 7.05,0.78 7.05,1.76z"/>
   <path class="fil39" d="M307.87 186.31l-0.07 2.73 -0.08 12.25c0,0 11.86,3.88 21.19,6.95l1.5 -18.85 -22.54 -3.08z"/>
  </g>
 </g>
</svg>
